<svg xmlns="http://www.w3.org/2000/svg" width="553" height="597" viewBox="0 0 553 597">
  <g id="Group_2" data-name="Group 2" transform="translate(-255 -258)">
    <g id="Ellipse_1" data-name="Ellipse 1" transform="translate(255 345)" fill="none" stroke="#fff" stroke-width="64">
      <circle cx="255" cy="255" r="255" stroke="none"/>
      <circle cx="255" cy="255" r="223" fill="none"/>
    </g>
    <path id="Subtraction_1" data-name="Subtraction 1" d="M-1645,671V74a302.276,302.276,0,0,1,30.469,1.541,298.3,298.3,0,0,1,29.589,4.523,296.131,296.131,0,0,1,55.938,17.393,297.874,297.874,0,0,1,50.62,27.521,300.241,300.241,0,0,1,44.1,36.45,300.51,300.51,0,0,1,36.389,44.177,298.688,298.688,0,0,1,27.476,50.7,297.366,297.366,0,0,1,17.364,56.032,299.787,299.787,0,0,1,4.516,29.638A303.834,303.834,0,0,1-1347,372.5a303.833,303.833,0,0,1-1.539,30.52,299.784,299.784,0,0,1-4.516,29.638,297.359,297.359,0,0,1-17.364,56.031,298.693,298.693,0,0,1-27.476,50.7,300.516,300.516,0,0,1-36.389,44.177,300.236,300.236,0,0,1-44.1,36.45,297.891,297.891,0,0,1-50.62,27.521,296.133,296.133,0,0,1-55.937,17.393,298.315,298.315,0,0,1-29.589,4.523A302.285,302.285,0,0,1-1645,671Z" transform="translate(2155 184)" fill="#fff"/>
    <circle id="Ellipse_3" data-name="Ellipse 3" cx="37.5" cy="37.5" r="37.5" transform="translate(255 258)" fill="#fff"/>
  </g>
</svg>
